PathFileType	4	(X/Y/Z)	./resultDataOpenSim/trcMotMarkerGrf/sub09/qtm-15-04.trc
DataRate	CameraRate	NumFrames	NumMarkers	Units	OrigDataRate	OrigDataStartFrame	OrigNumFrames
250.000000	250.000000	6	24	m	250.000000	364	484
Frame#	Time	L.Toe.Tip			R.Toe.Tip			L.Ankle.Lat			R.Ankle.Lat			L.Ankle.Med			R.Ankle.Med			L.Heel			R.Heel			L.Knee.Lat			R.Knee.Lat			L.Knee.Med			R.Knee.Med			L.Thigh.Upper			R.Thigh.Upper			L.ASIS			R.ASIS			V.Sacral			L.Acromium			R.Acromium			C7			L.Elbow			R.Elbow			L.Wrist.Lat			R.Wrist.Lat
		X1	Y1	Z1	X2	Y2	Z2	X3	Y3	Z3	X4	Y4	Z4	X5	Y5	Z5	X6	Y6	Z6	X7	Y7	Z7	X8	Y8	Z8	X9	Y9	Z9	X10	Y10	Z10	X11	Y11	Z11	X12	Y12	Z12	X13	Y13	Z13	X14	Y14	Z14	X15	Y15	Z15	X16	Y16	Z16	X17	Y17	Z17	X18	Y18	Z18	X19	Y19	Z19	X20	Y20	Z20	X21	Y21	Z21	X22	Y22	Z22	X23	Y23	Z23	X24	Y24	Z24

364	1.452	0.71707994	0.16257542	-0.091859612	1.0042519	0.039188902	0.0017213503	0.68187905	0.31341996	-0.11437808	0.86263771	0.072656457	0.039975602	0.71554801	0.29552309	-0.022124994	0.87989732	0.11600215	-0.047910837	0.61961248	0.35299733	-0.05826779	0.79013782	0.068324015	-0.010274343	1.0416036	0.48038028	-0.17700715	1.0420152	0.48880877	0.12087739	1.064097	0.46767678	-0.051001181	1.0275912	0.48517115	-0.0049336423	0.91493423	0.86832424	-0.18010457	0.95064175	0.88742403	0.19008201	1.0025305	0.94988472	-0.1285865	1.0315116	0.96331307	0.10756432	0.8531279	1.0283088	0.0035082621	1.0571601	1.4025479	-0.18146542	1.0629234	1.4249307	0.14600862	1.0000674	1.4677869	-0.017391117	0.88556206	1.0641931	-0.23777177	0.84298831	1.1484422	0.26884369	1.1072233	0.90062228	-0.24338776	0.96457563	0.90451124	0.33038347
365	1.456	0.73329988	0.16101704	-0.094101902	1.0044093	0.039312589	0.0020253235	0.69453435	0.31067832	-0.11634517	0.86288058	0.073877156	0.04070621	0.7280761	0.29343171	-0.024042614	0.88067078	0.11720302	-0.04717886	0.63101184	0.34877502	-0.060640648	0.79060986	0.070063487	-0.0096796789	1.0521284	0.48389591	-0.17710645	1.0436692	0.48977147	0.12159128	1.0739903	0.47130645	-0.05105052	1.0294139	0.48593679	-0.0044700699	0.92149257	0.87071744	-0.18076128	0.95548885	0.88934696	0.18962076	1.0084684	0.95240363	-0.12888555	1.0369394	0.96529037	0.10734116	0.85868365	1.0302581	0.0028780463	1.0618411	1.4049468	-0.18171297	1.0679992	1.4271908	0.14582696	1.0048173	1.4700483	-0.017505105	0.88917055	1.0673589	-0.23747367	0.84899631	1.1496384	0.26870848	1.1079485	0.90034912	-0.24440762	0.97360952	0.90675397	0.32840866
366	1.46	0.74964663	0.15922793	-0.096277588	1.0045594	0.039442033	0.0023425868	0.7073139	0.30762067	-0.11825581	0.86313514	0.075104478	0.04143344	0.74070513	0.29108839	-0.025966354	0.88145098	0.11841447	-0.046453619	0.64260122	0.34431364	-0.063141114	0.79102229	0.071802892	-0.0090746785	1.0625126	0.48731219	-0.17714386	1.0453101	0.49072211	0.1221991	1.0837987	0.47489857	-0.051104999	1.0315252	0.48667738	-0.0039747771	0.92795317	0.8730388	-0.1814628	0.96032935	0.89122792	0.18915022	1.0144771	0.95489942	-0.12918868	1.0423843	0.96723084	0.10711017	0.86431121	1.0321735	0.0022565262	1.0665274	1.4073136	-0.18195947	1.0730776	1.429399	0.14563229	1.0095844	1.4722639	-0.017596836	0.89284808	1.0704738	-0.23721441	0.85476972	1.1507472	0.26844899	1.1086908	0.90012186	-0.24544348	0.98261353	0.90899835	0.32643377
367	1.464	0.76621977	0.1572393	-0.098443064	1.0047055	0.039568003	0.0026628068	0.72023189	0.30427763	-0.12015159	0.86346957	0.076316348	0.042127404	0.75345174	0.28850679	-0.027882013	0.88222019	0.11963161	-0.045729934	0.65437124	0.33960648	-0.065719791	0.79138281	0.073533638	-0.0084554407	1.0727199	0.4906075	-0.17711424	1.0469408	0.49166308	0.12274965	1.0935547	0.47843421	-0.051153928	1.033708	0.48740514	-0.0034155412	0.93427857	0.87528054	-0.18224172	0.96516795	0.89306452	0.18867128	1.0205409	0.95736061	-0.12949947	1.0478336	0.96912399	0.10687283	0.87001236	1.0340728	0.0016614164	1.0712173	1.4096494	-0.18220448	1.0781468	1.4315541	0.14542586	1.0143639	1.4744358	-0.017676703	0.8965854	1.0735438	-0.23699237	0.86039379	1.1517745	0.26810519	1.1094545	0.89993257	-0.2464973	0.99158456	0.91124539	0.32446588
368	1.468	0.78305088	0.15508788	-0.1006151	1.0048513	0.039672198	0.0029855781	0.73328726	0.30067683	-0.12205559	0.86389365	0.077506683	0.042777085	0.76633088	0.28569182	-0.029791298	0.88297543	0.12083594	-0.045008996	0.66629641	0.33462444	-0.06825762	0.79179306	0.07526061	-0.0078476206	1.0827263	0.49378676	-0.17703889	1.0485587	0.49262634	0.1232916	1.1031883	0.48187166	-0.051169416	1.0357428	0.48815094	-0.0028210654	0.94056939	0.87747387	-0.18306399	0.97001163	0.89485446	0.18818634	1.0266329	0.95977451	-0.1298148	1.0532705	0.97095789	0.1066323	0.87576738	1.0359549	0.0010848093	1.0759118	1.4119535	-0.18244635	1.0831811	1.4336694	0.14521599	1.0191403	1.4765524	-0.017757985	0.9003783	1.0765744	-0.23681491	0.86598268	1.1527384	0.26773367	1.1102367	0.89977696	-0.24756649	1.0005143	0.91349199	0.32251422
369	1.472	0.80008467	0.15280302	-0.10275649	1.0049997	0.039743847	0.0033094138	0.74647676	0.29684333	-0.12398007	0.86437545	0.078681162	0.043393421	0.77937329	0.28263405	-0.031719356	0.88374606	0.12200244	-0.044306389	0.67835295	0.32932914	-0.070654522	0.79234984	0.076993006	-0.0072752414	1.0925431	0.49685998	-0.1769454	1.0501728	0.49361279	0.12382958	1.1125383	0.48517274	-0.051136689	1.0375833	0.48892141	-0.0022675325	0.94705514	0.87967464	-0.18382271	0.97486642	0.89659528	0.18769566	1.0327322	0.96213145	-0.13012824	1.0586876	0.97272841	0.1063935	0.88155448	1.0377955	0.00049190127	1.0806083	1.4142205	-0.18268261	1.0881692	1.4357646	0.14501176	1.0239023	1.4786038	-0.017846647	0.90422226	1.0795608	-0.23668405	0.87162106	1.1536573	0.26737902	1.1110306	0.89965381	-0.24865201	1.0093945	0.9157285	0.32058191
